<svg xmlns="http://www.w3.org/2000/svg" xmlns:xlink="http://www.w3.org/1999/xlink" width="512" zoomAndPan="magnify" viewBox="0 0 384 383.999986" height="512" preserveAspectRatio="xMidYMid meet" version="1.0"><defs><clipPath id="8173c4169d"><path d="M 0 0 L 9.777344 0 L 9.777344 16.550781 L 0 16.550781 Z M 0 0 " clip-rule="nonzero"/></clipPath></defs><path fill="#fc7abf" d="M 191.976562 -0.0117188 C 85.964844 -0.0117188 0 85.898438 0 191.871094 C 0 276.632812 55.011719 348.539062 131.328125 373.933594 C 140.929688 375.707031 144.433594 369.785156 144.433594 364.695312 C 144.433594 360.128906 144.265625 348.0625 144.167969 332.054688 C 90.769531 343.644531 79.492188 306.328125 79.492188 306.328125 C 70.777344 284.15625 58.175781 278.257812 58.175781 278.257812 C 40.726562 266.363281 59.472656 266.601562 59.472656 266.601562 C 78.742188 267.960938 88.871094 286.378906 88.871094 286.378906 C 106.007812 315.691406 133.824219 307.234375 144.765625 302.3125 C 146.496094 289.914062 151.460938 281.460938 156.960938 276.660156 C 114.335938 271.804688 69.503906 255.34375 69.503906 181.839844 C 69.503906 160.886719 76.992188 143.757812 89.277344 130.332031 C 87.289062 125.480469 80.710938 105.960938 91.152344 79.5625 C 91.152344 79.5625 107.28125 74.40625 143.949219 99.226562 C 159.261719 94.972656 175.679688 92.847656 192.023438 92.777344 C 208.316406 92.875 224.753906 94.972656 240.09375 99.25 C 276.742188 74.429688 292.847656 79.589844 292.847656 79.589844 C 303.308594 106.011719 296.734375 125.507812 294.765625 130.351562 C 307.078125 143.78125 314.496094 160.910156 314.496094 181.863281 C 314.496094 255.5625 269.613281 271.785156 226.847656 276.535156 C 233.738281 282.464844 239.878906 294.164062 239.878906 312.058594 C 239.878906 337.71875 239.640625 358.40625 239.640625 364.691406 C 239.640625 369.824219 243.09375 375.796875 252.839844 373.910156 C 329.039062 348.488281 384 276.613281 384 191.871094 C 384 85.898438 298.035156 -0.0117188 191.976562 -0.0117188 Z M 191.976562 -0.0117188 " fill-opacity="1" fill-rule="nonzero"/><g clip-path="url(#8173c4169d)"><path fill="#ffffff" d="M -105.421875 -98.648438 L 9.777344 -98.648438 L 9.777344 16.550781 L -105.421875 16.550781 Z M -105.421875 -98.648438 " fill-opacity="1" fill-rule="nonzero"/></g></svg>
